<svg
	xmlns="http://www.w3.org/2000/svg"
	viewBox="0 0 607 166">
	<g
		fill="none"
		fill-rule="evenodd"
		transform="translate(0 .564)">
		<path
			fill="#56C2B6"
			d="M238.448,47.22 C276.684,67.318 299.326,120.245 289.021,165.436 C250.784,145.34 228.144,92.413 238.448,47.22 Z M438.717,13.564 L438.717,46.495 L465.721,46.495 L465.721,57.685 L438.93,57.685 L438.93,132.097 C438.93,144.505 444.403,150.678 453.739,150.678 C457.024,150.678 460.187,149.674 463.045,147.789 C464.109,150.888 465.721,153.779 467.788,156.273 C461.768,160.014 453.892,162.142 444.678,162.142 C429.382,162.142 411.745,156.669 411.745,126.595 L411.745,126.595 L411.745,57.685 L396.904,57.685 L396.904,49.811 C416.762,51.028 425.338,39.319 427.983,13.564 L427.983,13.564 L438.717,13.564 Z M172.413,44.094 C204.131,44.094 223.448,65.319 223.448,94.651 C223.448,98.229 223.21,102.045 222.494,105.144 L144.511,105.144 C144.988,132.571 158.818,150.696 179.567,150.696 C195.069,150.696 208.9,140.918 216.771,123.985 L216.771,151.412 C204.847,158.804 191.492,162.142 176.706,162.142 C139.265,162.142 115.894,137.816 115.894,102.763 C115.894,68.18 139.026,44.094 172.413,44.094 Z M53.886,0 C66.626,0 78.44,3.01 89.713,9.184 C95,12.079 98.251,17.669 98.251,23.697 L98.251,23.697 L98.251,43.85 C87.275,23.841 72.252,12.134 55.101,12.134 C39.593,12.134 27.673,21.682 27.673,36.705 C27.673,54.341 43.637,62.703 61.062,66.749 C84.902,72.465 105.642,86.058 105.642,113.488 C105.642,142.832 83.473,162.141 48.655,162.141 C33.629,162.141 20.011,158.574 8.168,151.791 C3.071,148.871 0,143.369 0,137.495 L0,137.495 L0,116.591 C12.406,137.329 30.53,149.734 49.598,149.734 C67.266,149.734 78.942,139.243 78.942,123.036 C78.942,104.912 64.163,96.792 47.468,92.748 C23.598,87.275 1.429,72.252 1.429,44.579 C1.429,17.881 23.142,0 53.886,0 Z M523.802,44.093 C550.046,44.093 566.953,58.417 566.953,82.743 L566.953,82.743 L566.953,125.651 C566.953,137.816 568.169,150.709 571.027,159.74 L571.027,159.74 L543.355,159.74 L541.44,142.832 L541.196,142.832 C534.78,154.997 521.43,162.141 505.435,162.141 C484.94,162.141 470.373,150.709 470.373,132.096 C470.373,113.729 484.696,104.182 511.152,98.465 C532.134,93.933 540.011,87.487 540.011,74.867 C540.011,62.46 532.621,55.557 520.458,55.557 C506.165,55.557 492.815,65.319 480.865,83.686 L480.865,83.686 L480.865,57.931 C491.599,49.11 508.05,44.093 523.802,44.093 Z M362.067,46.495 C375.325,46.495 386.061,57.23 386.061,70.457 L386.061,104.972 L386.091,105.002 L386.091,138.604 C386.091,138.816 386.061,139.274 386.091,139.333 C386.181,146.54 391.191,155.481 399.727,157.238 L401.775,161.32 L382.654,161.32 C369.395,161.32 358.661,150.585 358.661,137.357 L358.632,105.062 L358.632,69.211 C358.632,69.15725 358.633812,69.0885625 358.636078,69.0148125 L358.642875,68.78825 C358.6465,68.64025 358.6465,68.5115 358.632,68.481 C358.539,61.274 357.597,53.489 355.955,46.495 L362.067,46.495 Z M594.867,146.023 L599.045,156.26 L603.34,146.023 L606.713,146.023 L606.713,159.518 L604.144,159.518 L604.106,149.744 L599.928,159.518 L597.973,159.518 L593.831,149.588 L593.831,159.518 L591.301,159.518 L591.301,146.023 L594.867,146.023 Z M589.153,146.023 L589.153,148.171 L585.895,148.171 L585.895,159.518 L583.135,159.518 L583.173,148.171 L579.874,148.171 L579.874,146.023 L589.153,146.023 Z M540.254,96.094 C535.723,101.323 529.275,104.912 520.458,107.527 C504.007,112.301 497.803,120.177 497.803,130.181 C497.803,141.161 505.191,148.062 515.683,148.062 C529.519,148.062 540.254,137.329 540.254,113.972 L540.254,113.972 Z M172.891,55.54 C155.719,55.54 144.75,71.757 144.75,94.178 L198.407,94.178 C199.123,70.803 189.584,55.54 172.891,55.54 Z M370.438,2.584 C378.835,2.584 385.64,8.927 385.64,17.092 C385.64,25.518 378.604,31.86 370.438,31.86 C362.039,31.86 355.205,25.518 355.205,17.092 C355.205,8.927 362.039,2.584 370.438,2.584 Z"/>
		<path
			fill="#007F6E"
			d="M338.891,46.86 C320.472,56.704 305.758,74.197 296.643,94.73 C302.664,116.082 302.766,139.669 296.692,160.737 C330.06,137.741 348.732,88.856 338.891,46.86"/>
	</g>
</svg>